<svg xmlns="http://www.w3.org/2000/svg" viewBox="0 0 80 80" id="garage"><path d="M46.518 59.887h3.851v4h-3.851zM29.632 59.887h3.851v4h-3.851z"></path><path d="m61.995 53.387-3.996.166c.018.448-.11.575-.157.623-.141.14-.393.24-.667.314l-3.662-7.893a6.16 6.16 0 0 0-5.743-3.964H32.225a6.16 6.16 0 0 0-5.743 3.964L22.816 54.5c-.265-.072-.511-.174-.66-.32-.053-.053-.178-.175-.16-.626L18 53.387c-.077 1.842.695 3 1.356 3.648.112.11.234.198.353.293-.001.034-.01.065-.01.1v8.919a2.807 2.807 0 0 0 2.804 2.804h1.436v2.35c0 1.93 1.57 3.499 3.499 3.499h4.606c1.93 0 3.498-1.57 3.498-3.499v-2.35h8.916v2.35c0 1.93 1.569 3.499 3.498 3.499h4.606c1.93 0 3.499-1.57 3.499-3.499v-2.35h1.436a2.807 2.807 0 0 0 2.804-2.804v-8.92c0-.035-.009-.068-.01-.103.117-.094.237-.18.348-.289.66-.648 1.433-1.806 1.356-3.648zm-31.851-5.178.066-.163a2.148 2.148 0 0 1 2.015-1.413H47.77c.9 0 1.709.568 2.015 1.413l3.042 6.577H27.168l2.976-6.414zM31.542 71H27.94v-1.85h3.603V71zm20.519 0h-3.603v-1.85h3.603V71zm4.24-5.85H23.7v-6.524l.136.003c.126 0 .21-.003.27-.006H55.89c.06.003.144.006.27.006l.141-.003v6.525z"></path><path d="M5 22.78V75h11V37h48v38h11V22.78L39.997 4.75 5 22.78zM64 33H16v-.688A2.315 2.315 0 0 1 18.313 30h43.374A2.315 2.315 0 0 1 64 32.313V33zm7 38h-3V32.312A6.32 6.32 0 0 0 61.687 26H18.313A6.32 6.32 0 0 0 12 32.313V71H9V25.22L39.997 9.25 71 25.22V71z"></path></svg>