<svg xmlns="http://www.w3.org/2000/svg" enable-background="new 0 0 64 64" viewBox="0 0 64 64" id="measure"><path d="M40.02,62.61H24.46c-0.79,0-1.43-0.64-1.43-1.43v-38.1c0-0.79,0.64-1.43,1.43-1.43h15.56c0.79,0,1.43,0.64,1.43,1.43
					v38.1C41.45,61.97,40.81,62.61,40.02,62.61z M25.9,59.75h12.69V24.51H25.9V59.75z"></path><path d="M62.57 40.06h-38.1c-.79 0-1.43-.64-1.43-1.43V23.08c0-.79.64-1.43 1.43-1.43h38.1c.79 0 1.43.64 1.43 1.43v15.56C64 39.42 63.36 40.06 62.57 40.06zM25.9 37.2h35.24V24.51H25.9V37.2zM31.5 56.74h-7.03c-.79 0-1.43-.64-1.43-1.43s.64-1.43 1.43-1.43h7.03c.79 0 1.43.64 1.43 1.43S32.29 56.74 31.5 56.74zM31.5 48.38h-7.03c-.79 0-1.43-.64-1.43-1.43 0-.79.64-1.43 1.43-1.43h7.03c.79 0 1.43.64 1.43 1.43C32.93 47.74 32.29 48.38 31.5 48.38z"></path><path d="M47.9 31.54c-.79 0-1.43-.64-1.43-1.43v-7.03c0-.79.64-1.43 1.43-1.43.79 0 1.43.64 1.43 1.43v7.03C49.33 30.9 48.69 31.54 47.9 31.54zM56.26 31.54c-.79 0-1.43-.64-1.43-1.43v-7.03c0-.79.64-1.43 1.43-1.43.79 0 1.43.64 1.43 1.43v7.03C57.69 30.9 57.05 31.54 56.26 31.54zM16.55 61.97c-.79 0-1.43-.64-1.43-1.43V2.82c0-.79.64-1.43 1.43-1.43.79 0 1.43.64 1.43 1.43v57.72C17.98 61.33 17.34 61.97 16.55 61.97z"></path><path d="M62.57,18.12H1.43C0.64,18.12,0,17.48,0,16.69s0.64-1.43,1.43-1.43h61.13c0.79,0,1.43,0.64,1.43,1.43
			S63.36,18.12,62.57,18.12z"></path></svg>