<svg xmlns="http://www.w3.org/2000/svg" data-name="Layer 1" viewBox="0 0 64 64" id="price-tag"><path fill="#231f20" d="M31.9917,22.8177h.0014a3.2723,3.2723,0,1,0-.0014,0Z"></path><path fill="#231f20" d="M49.9815,24.3369a7.9892,7.9892,0,0,0-1.9764-4.89L34.3914,5.3453a3.3311,3.3311,0,0,0-4.81.0018L15.9785,19.46a7.9883,7.9883,0,0,0-1.9726,4.8915l.0126,31.902A3.4326,3.4326,0,0,0,17.447,59.68h.0013l29.1186-.0116a3.4356,3.4356,0,0,0,3.4272-3.43ZM31.99,14.3139a5.2322,5.2322,0,1,1,.0042,10.4643h-.0022a5.2322,5.2322,0,0,1-.002-10.4643Zm7.4346,33.6055a8.9367,8.9367,0,0,1-12.1131-5.113H24.9833a.98.98,0,0,1,0-1.96h1.8722a9.0213,9.0213,0,0,1,0-2.0895H24.9833a.98.98,0,0,1,0-1.96h2.3279a8.9328,8.9328,0,0,1,12.1132-5.1128.98.98,0,0,1-.8153,1.7828,6.9667,6.9667,0,0,0-9.1712,3.33h9.5788a.98.98,0,0,1,0,1.96H28.8336a7,7,0,0,0,0,2.0895H38.27a.98.98,0,1,1,0,1.96H29.4379a6.9669,6.9669,0,0,0,9.1712,3.33.98.98,0,0,1,.8152,1.7829Z"></path></svg>