<svg xmlns="http://www.w3.org/2000/svg" width="2000" height="2000" id="price-tag"><path d="M1354.935 908.822c-.013-31.209-17.003-73.244-38.678-95.696l-270.199-279.885c-12.3-12.741-28.748-19.758-46.313-19.758a63.93 63.93 0 0 0-23.587 4.487c-20.775-38.343-43.659-70.037-66.748-92.33-38.655-37.32-66.929-37.263-83.841-30.644-19.75 7.729-42.902 31.436-41.045 100.48 1.289 47.918 14.667 106.679 37.671 165.456a711.87 711.87 0 0 0 2.381 5.994l-141.159 146.45c-21.659 22.47-38.615 64.519-38.602 95.728l.25 633.179c.015 36.428 29.664 66.065 66.093 66.065h.025l577.935-.229c36.442-.015 66.079-29.674 66.066-66.116l-.249-633.181zM819.511 494.535c-1.171-43.52 9.403-63.263 18.813-66.946 17.363-6.793 63.347 24.362 109.453 111.519l-96.436 100.05c-19.448-52.011-30.712-103.05-31.83-144.623zm469.593 1078.583-577.934.229-.012 17.5v-17.5c-17.138 0-31.086-13.942-31.093-31.079l-.25-633.179c-.01-22.122 13.449-55.497 28.801-71.424l131.122-136.037c17.697 37.451 38.042 70.818 59.301 97.093a103.2 103.2 0 0 0-1.092 15.051c.022 56.161 45.729 101.85 101.89 101.85h.041c56.181-.022 101.87-45.748 101.851-101.932-.025-56.159-45.732-101.848-101.932-101.848-27.215.011-52.797 10.619-72.035 29.871a102.782 102.782 0 0 0-14.364 18.013c-17.097-24.115-33.337-53.163-47.579-85.158l112.777-117.005c5.646-5.857 13.156-9.083 21.147-9.083 7.983 0 15.488 3.22 21.132 9.067l270.2 279.885c15.364 15.915 28.85 49.279 28.858 71.401l.25 633.179c.007 17.147-13.935 31.099-31.079 31.106zM937.156 837.071c19.801 15.209 36.44 20.264 49.793 20.263 6.978 0 13.062-1.377 18.229-3.4 26.042-10.19 40.212-41.086 41.098-88.271 12.589 12.166 20.444 29.201 20.452 48.044.013 36.884-29.982 66.903-66.864 66.917l-.027 17.5v-17.5c-28.673 0-53.188-18.145-62.681-43.553zm73.81-89.283c2.317 44.757-7.233 69.128-18.542 73.553-1.433.561-3.135.866-5.098.866-10.284-.001-27.643-8.41-49.916-32.541a66.707 66.707 0 0 1 15.11-23.211c12.629-12.639 29.424-19.604 47.318-19.61a66.808 66.808 0 0 1 11.128.943z"></path><path d="M1015.624 1204.212c-56.606-19.058-81.623-35.647-81.881-69.743-.188-24.896 20.837-54.821 76.688-55.243 37.033-.279 41.944 1.769 41.944 1.769 19.742 8.23 41.278-.21 47.86-18.755l1.708-4.812c-17.077-8.24-46.631-16.385-85.856-16.642l-.365-48.53c-.078-10.346-9.55-18.662-21.154-18.575-11.605.087-20.95 8.545-20.872 18.892l.392 51.975c-58.051 11.617-94.688 48.955-94.335 95.74.388 51.414 42.515 82.488 109.449 102.551 55.389 18.525 77.391 37.844 77.647 71.939.277 36.803-31.1 62.477-85.131 62.884-36.426.274-71.107-9.748-94.886-23.1l-2.004 5.811c-6.414 18.592 4.907 39.68 25.159 46.863 0 0 28.209 9.995 66.909 9.961l.365 48.511c.078 10.346 9.55 18.662 21.154 18.574 11.605-.087 20.95-8.545 20.872-18.891l-.39-51.774c68.848-12.394 101.706-55.305 101.347-103.03-.402-53.578-35.227-82.544-104.62-106.375z"></path></svg>