<svg xmlns="http://www.w3.org/2000/svg" width="32" height="32" id="shower"><g transform="translate(555.5 -1281.362)"><path style="isolation:auto;mix-blend-mode:normal" fill="#e9eded" d="M-547.5 1294.862a1.5 1.5 0 0 0-1.5 1.5c-.238 0-.473.057-.686.166a2 2 0 0 0-1.814-1.166 2 2 0 0 0-2 2h13.5a1.5 1.5 0 0 0-2.947-.392 1.505 1.505 0 0 0-1.105-.002 1.5 1.5 0 0 0-2-1 1.5 1.5 0 0 0-1.448-1.106z" color="#000" overflow="visible"></path><path fill="none" stroke="#34485c" d="M-549.5 1306.362v2m19-2v2"></path><path style="isolation:auto;mix-blend-mode:normal" fill="none" stroke="#34485c" stroke-dashoffset="6.4" stroke-linecap="square" d="M-536.5 1287.748a1.88 1.88 0 0 1 1.882-1.886h4.236a1.88 1.88 0 0 1 1.882 1.886v9.7" color="#000" overflow="visible"></path><path style="isolation:auto;mix-blend-mode:normal" fill="#34485c" d="M-534-1290.362a2.5 2.597 0 0 1-1.25 2.25 2.5 2.597 0 0 1-2.5 0 2.5 2.597 0 0 1-1.25-2.25h2.5z" color="#000" overflow="visible" transform="scale(1 -1)"></path><path fill="none" stroke="#cad1d8" d="M-537.5 1290.862v1m2-1v1m-2 1v1m2-1v1m-2 1v1m2-1v1"></path><path style="isolation:auto;mix-blend-mode:normal" fill="#34485c" d="M-526.5 1299.451v4.411c0 1.94-1.561 3.5-3.5 3.5h-20a3.492 3.492 0 0 1-3.5-3.5v-4.41" color="#000" overflow="visible"></path><ellipse style="isolation:auto;mix-blend-mode:normal" cx="-539" cy="1309.362" fill="#e9eded" color="#000" overflow="visible" rx="1" ry=".5"></ellipse><ellipse cx="-542.5" cy="1309.112" fill="#e9eded" color="#000" overflow="visible" rx="1.5" ry=".75" style="isolation:auto;mix-blend-mode:normal"></ellipse><ellipse style="isolation:auto;mix-blend-mode:normal" cx="-540.25" cy="1310.487" fill="#e9eded" color="#000" overflow="visible" rx=".75" ry=".375"></ellipse><rect style="isolation:auto;mix-blend-mode:normal" width="29" height="3" x="-554.5" y="1297.362" fill="#576d7e" color="#000" overflow="visible" rx="1" ry="1"></rect></g></svg>