<svg xmlns="http://www.w3.org/2000/svg" viewBox="0 0 100 100" width="500" height="500" class="illustration"><defs><style>.cls-1,.cls-4{fill:#f8d533;}.cls-2,.cls-6{fill:#3781f7;}.cls-3,.cls-5{fill:none;}.cls-3,.cls-4,.cls-6{stroke:#201d1d;}.cls-3,.cls-4,.cls-5,.cls-6{stroke-miterlimit:10;stroke-width:1.5px;}.cls-5{stroke:#221f20;}</style></defs><g id="Layer_3" data-name="Layer 3"><path class="cls-1" d="M81.76,64v7.63a63.3,63.3,0,0,1-59.27.09V64.1a16.31,16.31,0,0,1,2.36-8.51,16.64,16.64,0,0,1,6.3-5.93,16.3,16.3,0,0,1,7.54-1.86l26.77,0a14.77,14.77,0,0,1,2.89.23,16.27,16.27,0,0,1,11,7.53s0,0,0,.06A16.15,16.15,0,0,1,81.76,64Z"></path><path class="cls-2" d="M62.63,47.77a10.53,10.53,0,0,1-21.06,0Z"></path><circle class="cls-1" cx="52.07" cy="32.69" r="13.92"></circle><path class="cls-3" d="M71.3,76.05a63.16,63.16,0,0,1-19.15,3A62.93,62.93,0,0,1,22.5,71.72V64.1a16.31,16.31,0,0,1,2.36-8.51,16.64,16.64,0,0,1,6.3-5.93,16.3,16.3,0,0,1,7.54-1.86l26.77,0a14.77,14.77,0,0,1,2.89.23,16.27,16.27,0,0,1,11,7.53s0,0,0,.06A16.15,16.15,0,0,1,81.76,64"></path><path class="cls-3" d="M62.63,47.77a10.53,10.53,0,0,1-21.06,0Z"></path><path class="cls-3" d="M63.62,40.45A13.91,13.91,0,1,1,66,32.67a13.89,13.89,0,0,1-2.37,7.78"></path></g><g id="Layer_2" data-name="Layer 2"><path class="cls-4" d="M88.8,79.62l-7.92,5.87a2.74,2.74,0,0,1-3.14,0l-7.92-5.87a8.26,8.26,0,0,1-3-6.22V57.76h25V73.4A8.26,8.26,0,0,1,88.8,79.62Z"></path><path class="cls-5" d="M78.75,62.5h1.12a2.44,2.44,0,0,1,2.44,2.44v5.83a0,0,0,0,1,0,0h-6a0,0,0,0,1,0,0V64.94a2.44,2.44,0,0,1,2.44-2.44Z"></path><rect class="cls-6" x="73" y="67.32" width="12.63" height="8.27"></rect></g></svg>